<?xml version="1.0" encoding="utf-8"?>
<!-- Generator: Adobe Illustrator 19.0.1, SVG Export Plug-In . SVG Version: 6.00 Build 0)  -->
<svg version="1.1" id="_x30_3" xmlns="http://www.w3.org/2000/svg" xmlns:xlink="http://www.w3.org/1999/xlink" x="0px" y="0px"
	 viewBox="0 0 137.1 123.4" style="enable-background:new 0 0 137.1 123.4;" xml:space="preserve">
<style type="text/css">
	.st0{fill:#FFC43D;}
	.st1{fill:#06D6A0;}
	.st2{fill:#3ACCD1;}
	.st3{fill:#1B9AAA;}
</style>
<g id="isotype_3_">
	<path id="XMLID_57_" class="st0" d="M118.2,43.5c7.8-0.3,15.2,4.5,17.9,11.9c5.1,14.2-9.3,29.1-23.6,23.2c-3.3-1.3-6.2-3.4-9.6-4.4
		c-4-1.2-8.3-1.6-12.5-1.1c-4,0.5-7.9,1.6-11.4,3.4c-3.2,1.7-5.9,3.1-9.7,3.3c-15,0.6-24.3-16.8-15.5-28.9c4.2-5.7,11.6-8.6,18.5-7
		c3.5,0.8,6.3,2.9,9.5,4.2c3.7,1.5,7.6,2.2,11.6,2.3c0.1,0,0.2,0,0.3,0c0.1,0,0.2,0,0.3,0c4.6-0.1,9.2-1.1,13.3-3.1
		C111.1,45.6,114,43.7,118.2,43.5z"/>
	<path id="XMLID_56_" class="st1" d="M92.9,87c7.8-0.3,15.2,4.5,17.9,11.9c5.1,14.1-9.3,29.1-23.6,23.2c-3.3-1.3-6.2-3.4-9.6-4.4
		c-4-1.2-8.3-1.6-12.5-1.1c-4,0.5-7.9,1.6-11.4,3.4c-3.2,1.7-5.9,3.1-9.7,3.3c-15,0.6-24.3-16.8-15.5-28.9c4.2-5.7,11.6-8.6,18.5-7
		c3.5,0.8,6.3,2.9,9.5,4.2c3.7,1.5,7.6,2.2,11.6,2.3c0.1,0,0.2,0,0.3,0c0.1,0,0.2,0,0.3,0c4.6-0.1,9.2-1.1,13.3-3.1
		C85.8,89.1,88.7,87.1,92.9,87z"/>
	<path id="XMLID_55_" class="st2" d="M92.9,0c7.8-0.3,15.2,4.5,17.9,11.9c5.1,14.2-9.3,29.1-23.6,23.2c-3.3-1.3-6.2-3.4-9.6-4.4
		c-4-1.2-8.3-1.6-12.5-1.1c-4,0.5-7.9,1.6-11.4,3.4c-3.2,1.7-5.9,3.1-9.7,3.3C29,37,19.7,19.6,28.5,7.5c4.2-5.7,11.6-8.6,18.5-7
		c3.5,0.8,6.3,2.9,9.5,4.2c3.7,1.5,7.6,2.2,11.6,2.3c0.1,0,0.2,0,0.3,0c0.1,0,0.2,0,0.3,0c4.6-0.1,9.2-1.1,13.3-3.1
		C85.8,2.2,88.7,0.2,92.9,0z"/>
	<circle id="XMLID_54_" class="st3" cx="18.2" cy="61.8" r="18.2"/>
</g>
</svg>
